<?xml version="1.0" standalone="no"?><!DOCTYPE svg PUBLIC "-//W3C//DTD SVG 1.1//EN" "http://www.w3.org/Graphics/SVG/1.1/DTD/svg11.dtd"><svg t="1739333273061" class="icon" viewBox="0 0 1024 1024" version="1.1" xmlns="http://www.w3.org/2000/svg" p-id="38785" xmlns:xlink="http://www.w3.org/1999/xlink" width="64" height="64"><path d="M962.56 343.04C819.2 279.893333 675.84 220.16 532.48 157.013333c-15.36-6.826667-29.013333-6.826667-44.373333 0-139.946667 63.146667-283.306667 122.88-423.253334 182.613334-15.36 5.12-30.72 11.946667-30.72 32.426666s15.36 27.306667 30.72 32.426667c131.413333 56.32 262.826667 110.933333 394.24 170.666667 35.84 18.773333 68.266667 20.48 104.106667 0 17.066667-11.946667 39.253333-17.066667 59.733333-27.306667 83.626667-35.84 163.84-71.68 250.88-107.52v302.08c0 18.773333 6.826667 23.893333 23.893334 23.893333 17.066667 0 23.893333-3.413333 23.893333-23.893333 0-90.453333 3.413333-182.613333-3.413333-271.36 0-35.84 5.12-59.733333 44.373333-68.266667 15.36-3.413333 27.306667-11.946667 27.306667-30.72s-11.946667-23.893333-27.306667-29.013333z m0 0" fill="#2c2c2c" p-id="38786"></path><path d="M814.08 546.133333c0-20.48-6.826667-20.48-20.48-15.36-80.213333 35.84-160.426667 68.266667-238.933333 104.106667-30.72 11.946667-54.613333 11.946667-83.626667 0-80.213333-35.84-162.133333-68.266667-242.346667-104.106667-15.36-6.826667-17.066667-3.413333-17.066666 11.946667v119.466667c-8.533333 80.213333 32.426667 134.826667 100.693333 163.84 138.24 63.146667 274.773333 59.733333 409.6-6.826667 63.146667-32.426667 98.986667-80.213333 92.16-158.72-3.413333-37.546667 0-76.8 0-114.346667z m0 0" fill="#2c2c2c" p-id="38787"></path></svg>